<svg xmlns="http://www.w3.org/2000/svg" width="180" height="37" viewBox="0 0 180 37"><g><path style="fill:#ffffff" d="M43.439,3.001V13.15h4.369c1.001,0,1.736-0.239,2.202-0.717c0.466-0.479,0.776-1.418,0.931-2.828h0.655v8.742h-0.655c-0.012-1.005-0.134-1.74-0.365-2.209c-0.229-0.47-0.545-0.822-0.953-1.058c-0.405-0.236-1.012-0.353-1.812-0.353h-4.369v8.111c0,1.309,0.076,2.172,0.23,2.592c0.115,0.315,0.363,0.59,0.738,0.818c0.521,0.303,1.063,0.457,1.631,0.457h0.867v0.704H36.613v-0.704h0.849c0.991,0,1.709-0.312,2.16-0.936c0.282-0.405,0.423-1.386,0.423-2.933V6.16c0-1.307-0.076-2.172-0.23-2.59c-0.117-0.315-0.358-0.59-0.724-0.816c-0.507-0.307-1.05-0.459-1.629-0.459h-0.849V1.592h18.129l0.229,5.674h-0.618c-0.308-1.205-0.662-2.092-1.07-2.656c-0.406-0.564-0.908-0.976-1.502-1.228c-0.597-0.255-1.519-0.381-2.77-0.381h-5.57H43.439z"/><path style="fill:#ffffff" d="M65.252,18.77h-9.288l-1.628,4.073c-0.4,1.005-0.6,1.753-0.6,2.249c0,0.393,0.172,0.738,0.521,1.036c0.347,0.298,1.101,0.494,2.257,0.583v0.703h-7.553v-0.703c1.001-0.191,1.648-0.439,1.943-0.745c0.602-0.608,1.267-1.847,1.998-3.713L61.342,1h0.619l8.35,21.479c0.67,1.729,1.285,2.849,1.83,3.361c0.551,0.514,1.312,0.803,2.292,0.869v0.702h-9.464v-0.702c0.955-0.051,1.602-0.225,1.936-0.516c0.336-0.293,0.504-0.649,0.504-1.069c0-0.558-0.234-1.438-0.707-2.647l-1.448-3.709L65.252,18.77z M64.756,17.359L60.689,6.921l-4.174,10.438H64.756z"/><path style="fill:#ffffff" d="M74.008,27.414V26.71h0.902c1.013,0,1.734-0.351,2.158-1.048c0.258-0.42,0.392-1.359,0.392-2.819V6.16c0-1.611-0.165-2.62-0.498-3.026c-0.459-0.561-1.144-0.838-2.052-0.838h-0.902V1.593h9.764c3.585,0,6.313,0.437,8.183,1.313c1.869,0.876,3.371,2.337,4.511,4.38c1.137,2.047,1.706,4.405,1.706,7.086c0,3.589-1.017,6.595-3.042,9.007c-2.276,2.691-5.742,4.038-10.401,4.038h-10.72V27.414z M80.854,25.547c1.497,0.355,2.753,0.533,3.767,0.533c2.736,0,5.008-1.036,6.811-3.104c1.808-2.072,2.707-4.875,2.707-8.416c0-3.539-0.899-6.381-2.707-8.438c-1.803-2.057-4.121-3.084-6.95-3.084c-1.062,0-2.27,0.186-3.625,0.555v21.953H80.854z"/><path style="fill:#ffffff" d="M105.033,3.001v10.138h5.271c1.369,0,2.281-0.225,2.742-0.668c0.613-0.584,0.957-1.543,1.023-3.015h0.656v8.987h-0.656c-0.163-1.256-0.329-1.926-0.494-2.281c-0.21-0.443-0.561-0.794-1.043-1.049c-0.484-0.254-1.229-0.379-2.229-0.379h-5.271v8.375c0,1.144,0.049,1.84,0.143,2.086c0.095,0.248,0.261,0.445,0.496,0.59c0.234,0.146,0.684,0.22,1.345,0.22h4.065c1.356,0,2.343-0.101,2.957-0.304c0.611-0.204,1.198-0.604,1.767-1.199c0.733-0.787,1.479-1.975,2.245-3.562h0.708l-2.07,6.476H98.205v-0.704h0.851c0.565,0,1.104-0.148,1.609-0.438c0.378-0.205,0.634-0.508,0.771-0.916c0.139-0.406,0.206-1.236,0.206-2.494V6.087c0-1.64-0.153-2.647-0.463-3.026c-0.425-0.509-1.132-0.763-2.121-0.763h-0.851V1.595h18.482l0.27,5.657h-0.689c-0.248-1.359-0.523-2.292-0.821-2.801c-0.301-0.506-0.746-0.895-1.337-1.159c-0.472-0.192-1.301-0.286-2.494-0.286h-6.58L105.033,3.001z"/><path style="fill:#ffffff" d="M142.558,27.414h-6.401l-8.119-12.074c-0.603,0.027-1.092,0.04-1.471,0.04c-0.151,0-0.315-0.003-0.493-0.009c-0.177-0.006-0.357-0.016-0.548-0.03v7.503c0,1.625,0.165,2.637,0.496,3.028c0.447,0.56,1.12,0.84,2.018,0.84h0.938v0.704h-10.277v-0.704h0.901c1.018,0,1.741-0.356,2.175-1.065c0.247-0.396,0.371-1.326,0.371-2.801V6.16c0-1.624-0.166-2.635-0.496-3.026c-0.459-0.561-1.144-0.838-2.052-0.838h-0.901V1.593h8.738c2.546,0,4.424,0.198,5.634,0.599c1.208,0.4,2.235,1.137,3.074,2.209c0.847,1.074,1.269,2.352,1.269,3.838c0,1.587-0.481,2.965-1.443,4.131c-0.96,1.17-2.448,1.992-4.466,2.479l4.952,7.405c1.133,1.701,2.104,2.831,2.918,3.392c0.813,0.557,1.876,0.914,3.185,1.065V27.414z M125.522,14.139c0.225,0,0.421,0.004,0.583,0.01c0.165,0.008,0.303,0.008,0.407,0.008c2.288,0,4.013-0.532,5.174-1.598c1.162-1.064,1.745-2.425,1.745-4.076c0-1.649-0.47-2.924-1.407-3.935c-0.938-1.009-2.179-1.515-3.725-1.515c-0.683,0-1.609,0.121-2.775,0.363v10.742H125.522z"/><path style="fill:#ffffff" d="M159.401,1l0.62,8.15h-0.62c-0.625-2.032-1.432-3.562-2.421-4.59c-1.429-1.485-3.262-2.229-5.501-2.229c-3.054,0-5.379,1.302-6.971,3.9c-1.333,2.199-2,4.814-2,7.848c0,2.463,0.444,4.711,1.328,6.74c0.884,2.031,2.042,3.521,3.476,4.467c1.435,0.945,2.901,1.421,4.412,1.421c0.887,0,1.738-0.122,2.566-0.362c0.823-0.24,1.62-0.598,2.385-1.066v-7.465c0-1.295-0.089-2.325-0.271-2.726c-0.184-0.399-0.468-0.705-0.85-0.914c-0.384-0.207-1.06-0.313-2.024-0.313v-0.723h9.284v0.723h-0.442c-0.918,0-1.549,0.33-1.892,0.992c-0.235,0.471-0.354,1.582-0.354,2.965v7.904c-1.356,0.786-2.694,1.362-4.016,1.733c-1.32,0.368-2.79,0.551-4.405,0.551c-4.635,0-8.153-1.603-10.561-4.798c-1.803-2.402-2.707-5.169-2.707-8.305c0-2.271,0.508-4.449,1.523-6.531c1.201-2.475,2.853-4.382,4.951-5.712c1.758-1.104,3.833-1.657,6.227-1.657c0.871,0,1.663,0.076,2.376,0.227c0.716,0.151,1.726,0.489,3.034,1.008c0.662,0.269,1.104,0.402,1.325,0.402s0.418-0.111,0.577-0.334c0.157-0.223,0.256-0.658,0.29-1.305h0.653V1z"/><path style="fill:#ffffff" d="M177.646,1v8.932h-0.652c-0.214-1.714-0.596-3.08-1.144-4.095c-0.547-1.015-1.33-1.821-2.342-2.419c-1.017-0.598-2.065-0.893-3.146-0.893c-1.228,0-2.24,0.401-3.044,1.207c-0.802,0.807-1.203,1.724-1.203,2.752c0,0.789,0.253,1.505,0.76,2.152c0.733,0.951,2.473,2.219,5.22,3.809c2.24,1.295,3.771,2.289,4.592,2.979c0.818,0.694,1.447,1.509,1.892,2.447c0.439,0.942,0.662,1.923,0.662,2.952c0,1.957-0.705,3.642-2.111,5.057c-1.41,1.418-3.221,2.124-5.438,2.124c-0.696,0-1.353-0.056-1.963-0.171c-0.368-0.062-1.124-0.296-2.271-0.691c-1.151-0.402-1.879-0.603-2.188-0.603c-0.308,0-0.528,0.097-0.7,0.285c-0.171,0.188-0.299,0.585-0.38,1.18h-0.652v-8.856h0.652c0.31,1.854,0.72,3.24,1.237,4.162c0.522,0.92,1.312,1.686,2.38,2.297c1.066,0.606,2.238,0.914,3.51,0.914c1.477,0,2.641-0.42,3.492-1.256c0.857-0.838,1.286-1.828,1.286-2.972c0-0.632-0.162-1.274-0.487-1.924c-0.324-0.647-0.83-1.25-1.517-1.81c-0.457-0.381-1.714-1.191-3.767-2.431c-2.051-1.239-3.509-2.223-4.377-2.959c-0.866-0.735-1.526-1.548-1.972-2.437c-0.449-0.889-0.673-1.868-0.673-2.935c0-1.852,0.658-3.45,1.979-4.788c1.321-1.34,3-2.01,5.04-2.01c1.276,0,2.627,0.335,4.052,1.01c0.66,0.315,1.13,0.477,1.399,0.477c0.307,0,0.557-0.098,0.747-0.297c0.197-0.195,0.354-0.592,0.473-1.188h0.652L177.646,1z"/><path style="fill:#B8262E" d="M1.59,16.406c0.005,0.013,0.008,0.031,0.016,0.043L16.673,1.623H7.298L1.59,16.406z"/><path style="fill:#B8262E" d="M29.686,22.279l-24.814,2.5c0.037,0.062,0.074,0.123,0.111,0.183l19.539,5.028c1.854-1.999,3.711-4.537,5.166-7.713"/><path style="fill:#B8262E" d="M3.044,21.048l29.198-8.077c0.377-3.258,0.324-6.925-0.344-11.018L2.965,20.857C2.99,20.924,3.017,20.99,3.044,21.048"/><path style="fill:#B8262E" d="M2.128,18.443c0.013,0.041,0.024,0.078,0.037,0.117L31.771,1.621H17.308L2.128,18.443z"/><path style="fill:#B8262E" d="M3.923,23.012c0.011,0.022,0.022,0.047,0.035,0.066l25.844-1.059c1.114-2.5,1.976-5.375,2.396-8.67L3.923,23.012z"/><path style="fill:#B8262E" d="M6.052,26.648c4.618,6.697,10.567,9.351,10.567,9.351s3.813-1.696,7.697-5.792L6.052,26.648z"/><path style="fill:#B8262E" d="M7.088,1.621H1.373c-0.814,4.889-0.77,9.163-0.155,12.881L7.088,1.621z"/></g></svg>
